<svg width="24" height="24" xmlns="http://www.w3.org/2000/svg" xml:space="preserve" version="1.1">

 <g>
  <title>Layer 1</title>
  <g stroke="null" id="svg_1">
   <path stroke="null" id="svg_2" fill="#8247E5" d="m17.7109,8.21464c-0.41331,-0.23617 -0.9447,-0.23617 -1.41705,0l-3.30645,1.94844l-2.24366,1.23992l-3.2474,1.94844c-0.41331,0.23617 -0.9447,0.23617 -1.41705,0l-2.53888,-1.53514c-0.41331,-0.23617 -0.70852,-0.70852 -0.70852,-1.23992l0,-2.95218c0,-0.47235 0.23617,-0.9447 0.70852,-1.23992l2.53888,-1.47609c0.41331,-0.23617 0.9447,-0.23617 1.41705,0l2.53888,1.53514c0.41331,0.23617 0.70852,0.70852 0.70852,1.23992l0,1.94844l2.24366,-1.29896l0,-2.00748c0,-0.47235 -0.23617,-0.9447 -0.70852,-1.23992l-4.72349,-2.77505c-0.41331,-0.23617 -0.9447,-0.23617 -1.41705,0l-4.84158,2.8341c-0.47235,0.23617 -0.70852,0.70852 -0.70852,1.18087l0,5.5501c0,0.47235 0.23617,0.9447 0.70852,1.23992l4.78254,2.77505c0.41331,0.23617 0.9447,0.23617 1.41705,0l3.2474,-1.8894l2.24366,-1.29896l3.2474,-1.8894c0.41331,-0.23617 0.9447,-0.23617 1.41705,0l2.53888,1.47609c0.41331,0.23617 0.70852,0.70852 0.70852,1.23992l0,2.95218c0,0.47235 -0.23617,0.9447 -0.70852,1.23992l-2.47983,1.47609c-0.41331,0.23617 -0.9447,0.23617 -1.41705,0l-2.53888,-1.47609c-0.41331,-0.23617 -0.70852,-0.70852 -0.70852,-1.23992l0,-1.8894l-2.24366,1.29896l0,1.94844c0,0.47235 0.23617,0.9447 0.70852,1.23992l4.78254,2.77505c0.41331,0.23617 0.9447,0.23617 1.41705,0l4.78254,-2.77505c0.41331,-0.23617 0.70852,-0.70852 0.70852,-1.23992l0,-5.60915c0,-0.47235 -0.23617,-0.9447 -0.70852,-1.23992l-4.78254,-2.77505z" class="st0"/>
  </g>
 </g>
</svg>